<svg width="150" height="44" viewBox="0 0 150 44" fill="none" xmlns="http://www.w3.org/2000/svg">
<g clip-path="url(#clip0_17541_23316)">
<path d="M9.63188 43.9977C9.24431 43.9977 8.8661 43.9932 8.48156 43.9854C7.68497 43.976 6.89024 43.9133 6.10389 43.7978C5.37065 43.6836 4.66035 43.4712 3.9964 43.1676C3.33854 42.8664 2.73851 42.4716 2.21932 41.9982C1.6926 41.5303 1.25409 40.9877 0.921157 40.3918C0.584553 39.7921 0.351604 39.1492 0.230423 38.4856C0.0995577 37.7726 0.0287544 37.0516 0.0186231 36.3289C0.0105582 36.0863 0 35.2786 0 35.2786V8.70676C0 8.70676 0.0112452 7.91145 0.0186868 7.6778C0.0283873 6.95622 0.098779 6.23635 0.229253 5.52442C0.350657 4.85901 0.583787 4.21429 0.920572 3.61256C1.25228 3.01708 1.68836 2.47406 2.2119 2.00455C2.73485 1.53057 3.33679 1.13371 3.99578 0.828434C4.6582 0.525779 5.36716 0.314865 6.09891 0.202758C6.88785 0.0860815 7.68534 0.0230008 8.48469 0.0140448L9.63251 0H140.361L141.523 0.0146084C142.315 0.0231195 143.105 0.0856373 143.887 0.20163C144.626 0.315144 145.342 0.52753 146.012 0.831804C147.333 1.44702 148.407 2.42035 149.084 3.61537C149.416 4.21294 149.645 4.85241 149.765 5.51207C149.897 6.22983 149.971 6.95536 149.986 7.68286C149.99 8.00862 149.99 8.35853 149.99 8.70676C150 9.13811 150 9.54867 150 9.96261V34.0362C150 34.4541 150 34.8618 149.99 35.2729C149.99 35.647 149.99 35.9897 149.985 36.3423C149.97 37.0568 149.897 37.7694 149.768 38.4743C149.649 39.1427 149.417 39.7906 149.081 40.3953C148.745 40.9847 148.309 41.5226 147.789 41.9892C147.269 42.4652 146.668 42.8623 146.009 43.1654C145.34 43.4713 144.625 43.6845 143.887 43.7978C143.101 43.9139 142.306 43.9766 141.509 43.9854C141.136 43.9932 140.746 43.9977 140.368 43.9977L138.989 44L9.63188 43.9977Z" fill="black"/>
<path d="M35.0778 22.3306C35.0897 21.4124 35.3335 20.5122 35.7868 19.7137C36.24 18.9151 36.8878 18.2442 37.67 17.7633C37.1731 17.0536 36.5176 16.4696 35.7555 16.0576C34.9934 15.6456 34.1457 15.4169 33.2798 15.3898C31.4326 15.196 29.6419 16.4952 28.7006 16.4952C27.7411 16.4952 26.2918 15.4091 24.7312 15.4412C23.7218 15.4738 22.738 15.7674 21.8757 16.2932C21.0135 16.8191 20.3021 17.5593 19.811 18.4419C17.6836 22.1251 19.2705 27.5383 21.3083 30.5155C22.3279 31.9734 23.5195 33.6019 25.0787 33.5442C26.6045 33.4809 27.1743 32.5712 29.0161 32.5712C30.8407 32.5712 31.3753 33.5442 32.9662 33.5075C34.6034 33.4809 35.6349 32.0431 36.6187 30.5714C37.3513 29.5326 37.915 28.3845 38.289 27.1696C37.3378 26.7673 36.5261 26.0939 35.9551 25.2334C35.384 24.3729 35.0789 23.3633 35.0778 22.3306Z" fill="white"/>
<path d="M32.0732 13.4315C32.9658 12.3598 33.4056 10.9825 33.2991 9.5918C31.9353 9.73504 30.6755 10.3869 29.7708 11.4174C29.3284 11.9208 28.9896 12.5065 28.7738 13.1409C28.5579 13.7754 28.4692 14.4461 28.5127 15.1149C29.1949 15.1219 29.8697 14.9741 30.4865 14.6825C31.1032 14.3909 31.6457 13.9631 32.0732 13.4315Z" fill="white"/>
<path d="M56.3637 29.8534H51.1569L49.9065 33.5455H47.7012L52.6329 19.8857H54.9242L59.856 33.5455H57.613L56.3637 29.8534ZM51.6962 28.1497H55.8234L53.7888 22.1577H53.7319L51.6962 28.1497Z" fill="white"/>
<path d="M70.5062 28.5666C70.5062 31.6614 68.8497 33.6498 66.35 33.6498C65.7168 33.6829 65.0871 33.5371 64.5329 33.2289C63.9787 32.9207 63.5225 32.4628 63.2165 31.9074H63.1692V36.8402H61.125V23.5865H63.1037V25.243H63.1413C63.4614 24.6902 63.9253 24.2346 64.4837 23.9246C65.0421 23.6146 65.6741 23.4617 66.3124 23.4823C68.84 23.4823 70.5062 25.4804 70.5062 28.5666ZM68.405 28.5666C68.405 26.5503 67.363 25.2247 65.7732 25.2247C64.2113 25.2247 63.1607 26.5782 63.1607 28.5666C63.1607 30.5732 64.2113 31.9171 65.7732 31.9171C67.363 31.9171 68.405 30.6012 68.405 28.5666Z" fill="white"/>
<path d="M81.4691 28.5666C81.4691 31.6614 79.8126 33.6498 77.3129 33.6498C76.6797 33.6829 76.05 33.537 75.4958 33.2289C74.9416 32.9207 74.4854 32.4628 74.1794 31.9074H74.1321V36.8402H72.0879V23.5865H74.0666V25.2429H74.1042C74.4242 24.6902 74.8881 24.2346 75.4465 23.9246C76.0049 23.6146 76.6369 23.4617 77.2753 23.4823C79.803 23.4823 81.4691 25.4803 81.4691 28.5666ZM79.3679 28.5666C79.3679 26.5503 78.3259 25.2247 76.7361 25.2247C75.1741 25.2247 74.1236 26.5782 74.1236 28.5666C74.1236 30.5732 75.1741 31.9171 76.7361 31.9171C78.3259 31.9171 79.3679 30.6012 79.3679 28.5666H79.3679Z" fill="white"/>
<path d="M88.7137 29.7398C88.8652 31.0944 90.1811 31.9838 91.9793 31.9838C93.7024 31.9838 94.942 31.0944 94.942 29.873C94.942 28.8127 94.1944 28.1779 92.4241 27.7428L90.6538 27.3163C88.1455 26.7105 86.981 25.5374 86.981 23.6339C86.981 21.2771 89.0349 19.6582 91.9514 19.6582C94.8378 19.6582 96.8165 21.2771 96.8831 23.6339H94.8195C94.696 22.2707 93.5691 21.4479 91.9224 21.4479C90.2756 21.4479 89.1487 22.2804 89.1487 23.4921C89.1487 24.4578 89.8685 25.0261 91.6291 25.4611L93.1341 25.8306C95.9367 26.4934 97.1012 27.6192 97.1012 29.6173C97.1012 32.1728 95.0655 33.7734 91.8278 33.7734C88.7985 33.7734 86.7532 32.2104 86.6211 29.7397L88.7137 29.7398Z" fill="white"/>
<path d="M101.512 21.2295V23.5863H103.406V25.2052H101.512V30.6955C101.512 31.5484 101.891 31.9459 102.723 31.9459C102.948 31.942 103.173 31.9262 103.396 31.8986V33.5078C103.022 33.5777 102.641 33.6094 102.26 33.6023C100.244 33.6023 99.4578 32.845 99.4578 30.9135V25.2052H98.0098V23.5863H99.4578V21.2295H101.512Z" fill="white"/>
<path d="M104.504 28.5664C104.504 25.4329 106.349 23.4639 109.227 23.4639C112.115 23.4639 113.952 25.4329 113.952 28.5664C113.952 31.7085 112.124 33.6689 109.227 33.6689C106.331 33.6689 104.504 31.7085 104.504 28.5664ZM111.869 28.5664C111.869 26.4169 110.884 25.1482 109.227 25.1482C107.571 25.1482 106.587 26.4266 106.587 28.5664C106.587 30.7245 107.571 31.9835 109.227 31.9835C110.884 31.9835 111.869 30.7245 111.869 28.5664H111.869Z" fill="white"/>
<path d="M115.637 23.5864H117.586V25.2815H117.634C117.766 24.7521 118.076 24.2842 118.512 23.9566C118.948 23.6289 119.484 23.4614 120.029 23.4822C120.265 23.4814 120.5 23.507 120.73 23.5585V25.4706C120.432 25.3797 120.122 25.338 119.811 25.3471C119.514 25.335 119.218 25.3874 118.943 25.5005C118.668 25.6137 118.421 25.785 118.219 26.0027C118.017 26.2204 117.864 26.4793 117.771 26.7616C117.678 27.044 117.647 27.343 117.681 27.6384V33.5455H115.637L115.637 23.5864Z" fill="white"/>
<path d="M130.154 30.6203C129.879 32.4282 128.118 33.6689 125.865 33.6689C122.968 33.6689 121.17 31.7278 121.17 28.6137C121.17 25.4898 122.978 23.4639 125.779 23.4639C128.535 23.4639 130.267 25.3566 130.267 28.3763V29.0767H123.234V29.2002C123.201 29.5667 123.247 29.9359 123.368 30.2834C123.489 30.6308 123.683 30.9485 123.936 31.2153C124.19 31.4821 124.497 31.6919 124.838 31.8308C125.179 31.9698 125.545 32.0346 125.913 32.0211C126.396 32.0663 126.88 31.9545 127.295 31.7021C127.709 31.4497 128.031 31.0703 128.213 30.6203L130.154 30.6203ZM123.243 27.6479H128.222C128.241 27.3184 128.191 26.9886 128.075 26.6793C127.96 26.3699 127.782 26.0877 127.553 25.8504C127.324 25.6131 127.048 25.4257 126.742 25.3001C126.437 25.1744 126.109 25.1132 125.779 25.1203C125.446 25.1183 125.117 25.1823 124.808 25.3085C124.5 25.4347 124.22 25.6207 123.985 25.8557C123.749 26.0907 123.562 26.3701 123.435 26.6777C123.307 26.9853 123.242 27.3151 123.243 27.648V27.6479Z" fill="white"/>
<path d="M51.4392 9.60413C51.8677 9.57337 52.2978 9.63812 52.6983 9.79369C53.0988 9.94927 53.4598 10.1918 53.7553 10.5038C54.0507 10.8158 54.2732 11.1894 54.4068 11.5978C54.5403 12.0062 54.5816 12.4392 54.5275 12.8655C54.5275 14.9623 53.3942 16.1677 51.4392 16.1677H49.0684V9.60413H51.4392ZM50.0878 15.2394H51.3253C51.6315 15.2577 51.938 15.2075 52.2224 15.0924C52.5068 14.9774 52.7619 14.8003 52.9693 14.5742C53.1766 14.3481 53.3309 14.0786 53.421 13.7853C53.511 13.492 53.5346 13.1823 53.4898 12.8788C53.5313 12.5765 53.5054 12.2688 53.414 11.9776C53.3225 11.6865 53.1679 11.4192 52.961 11.1949C52.7541 10.9706 52.5002 10.7948 52.2174 10.6801C51.9346 10.5654 51.63 10.5148 51.3253 10.5317H50.0878V15.2394Z" fill="white"/>
<path d="M60.1137 14.8297C59.9809 15.2824 59.6931 15.674 59.3008 15.9359C58.9084 16.1979 58.4364 16.3136 57.9674 16.2627C57.6411 16.2713 57.3168 16.2088 57.017 16.0795C56.7173 15.9502 56.4493 15.7573 56.2316 15.514C56.0139 15.2708 55.8517 14.983 55.7563 14.6708C55.661 14.3586 55.6347 14.0294 55.6793 13.706C55.6359 13.3817 55.6626 13.0517 55.7578 12.7386C55.8529 12.4255 56.0142 12.1364 56.2308 11.891C56.4473 11.6457 56.7141 11.4497 57.0129 11.3163C57.3118 11.183 57.6359 11.1155 57.9631 11.1182C59.3413 11.1182 60.1728 12.0598 60.1728 13.6152V13.9564H56.6752V14.0111C56.6599 14.1929 56.6827 14.3759 56.7423 14.5483C56.8018 14.7207 56.8967 14.8788 57.0209 15.0124C57.1451 15.146 57.2958 15.2522 57.4635 15.3241C57.6311 15.3961 57.8119 15.4322 57.9943 15.4301C58.2282 15.4582 58.4651 15.4161 58.6749 15.3092C58.8847 15.2022 59.058 15.0353 59.1727 14.8296L60.1137 14.8297ZM56.6751 13.2334H59.177C59.1893 13.0672 59.1667 12.9002 59.1106 12.7432C59.0546 12.5862 58.9663 12.4427 58.8515 12.3218C58.7367 12.201 58.5978 12.1055 58.4439 12.0415C58.29 11.9775 58.1244 11.9464 57.9577 11.9502C57.7887 11.9481 57.6209 11.9799 57.4643 12.0436C57.3077 12.1074 57.1654 12.2018 57.0459 12.3214C56.9264 12.441 56.832 12.5833 56.7683 12.7399C56.7046 12.8965 56.673 13.0643 56.6752 13.2334H56.6751Z" fill="white"/>
<path d="M63.2959 11.1182C64.4099 11.1182 65.1382 11.6365 65.2338 12.5098H64.296C64.2058 12.1462 63.8502 11.9142 63.2959 11.9142C62.7502 11.9142 62.3356 12.1731 62.3356 12.5598C62.3356 12.8557 62.5859 13.0421 63.123 13.1651L63.9458 13.3558C64.8879 13.5744 65.3294 13.9793 65.3294 14.7071C65.3294 15.6396 64.4604 16.2626 63.2776 16.2626C62.0992 16.2626 61.3312 15.7303 61.2441 14.8527H62.2228C62.3071 15.0616 62.4591 15.2361 62.6545 15.3482C62.8499 15.4603 63.0773 15.5035 63.3002 15.4709C63.9093 15.4709 64.3422 15.1981 64.3422 14.8022C64.3422 14.5068 64.1102 14.3156 63.6139 14.1974L62.7502 13.9971C61.8081 13.7742 61.372 13.3515 61.372 12.6145C61.372 11.7364 62.1766 11.1182 63.2959 11.1182Z" fill="white"/>
<path d="M69.8898 12.833C69.8275 12.5762 69.6753 12.3501 69.4607 12.1958C69.2461 12.0415 68.9833 11.9692 68.72 11.9919C67.9015 11.9919 67.4009 12.6192 67.4009 13.6747C67.4009 14.7483 67.9058 15.3897 68.72 15.3897C68.9807 15.4199 69.2435 15.3538 69.459 15.2038C69.6744 15.0539 69.8276 14.8304 69.8898 14.5754H70.8405C70.7777 15.077 70.5213 15.5341 70.1262 15.8494C69.7311 16.1647 69.2284 16.3131 68.7254 16.263C68.3942 16.2735 68.0647 16.2114 67.76 16.0813C67.4553 15.9511 67.1827 15.7559 66.9613 15.5094C66.7398 15.2628 66.575 14.9709 66.4782 14.654C66.3813 14.3371 66.3549 14.0029 66.4008 13.6747C66.3572 13.3489 66.3853 13.0176 66.4831 12.7038C66.5808 12.39 66.7459 12.1014 66.9667 11.858C67.1876 11.6146 67.4589 11.4223 67.7617 11.2946C68.0645 11.1669 68.3916 11.1068 68.72 11.1186C69.2272 11.0719 69.7325 11.2249 70.1285 11.5451C70.5245 11.8653 70.78 12.3274 70.8405 12.833L69.8898 12.833Z" fill="white"/>
<path d="M71.8086 14.7666C71.8086 13.875 72.4725 13.3609 73.6509 13.2879L74.9926 13.2106V12.783C74.9926 12.2599 74.6467 11.9645 73.9785 11.9645C73.4328 11.9645 73.0547 12.1648 72.9462 12.515H71.9998C72.0997 11.6642 72.9 11.1185 74.0236 11.1185C75.2654 11.1185 75.9658 11.7367 75.9658 12.783V16.1673H75.0248V15.4713H74.9475C74.7905 15.7209 74.57 15.9245 74.3086 16.0611C74.0473 16.1978 73.7543 16.2626 73.4597 16.249C73.2517 16.2706 73.0416 16.2484 72.8427 16.1838C72.6439 16.1193 72.4608 16.0137 72.3052 15.8741C72.1497 15.7344 72.0251 15.5637 71.9396 15.3729C71.854 15.1822 71.8094 14.9756 71.8086 14.7666ZM74.9926 14.3433V13.9292L73.783 14.0065C73.1009 14.0522 72.7915 14.2842 72.7915 14.7209C72.7915 15.1667 73.1782 15.4261 73.71 15.4261C73.8658 15.4419 74.0232 15.4262 74.1728 15.3799C74.3224 15.3336 74.4612 15.2576 74.5808 15.1566C74.7005 15.0556 74.7986 14.9315 74.8694 14.7918C74.9401 14.6521 74.982 14.4996 74.9926 14.3433ZM73.4371 10.3859L74.579 8.82129H75.7252L74.4469 10.3859H73.4371Z" fill="white"/>
<path d="M77.498 11.2141H78.4391V11.9736H78.5121C78.6175 11.71 78.8036 11.4865 79.0439 11.3353C79.2842 11.184 79.5662 11.1129 79.8495 11.1319C79.9959 11.13 80.1421 11.1437 80.2856 11.1728V12.1375C80.1062 12.0991 79.9234 12.0793 79.7399 12.0784C79.5787 12.0639 79.4162 12.0833 79.263 12.1354C79.1097 12.1874 78.969 12.271 78.8499 12.3806C78.7308 12.4903 78.636 12.6236 78.5716 12.7721C78.5071 12.9206 78.4744 13.081 78.4756 13.2428V16.1674H77.4981L77.498 11.2141Z" fill="white"/>
<path d="M81.1838 16.6631H82.1844C82.2671 17.0224 82.6807 17.2544 83.3403 17.2544C84.1545 17.2544 84.6368 16.8677 84.6368 16.213V15.2623H84.5638C84.4105 15.5284 84.1866 15.7469 83.9168 15.8938C83.647 16.0406 83.3419 16.11 83.0352 16.0943C81.7709 16.0943 80.9883 15.1167 80.9883 13.6338C80.9883 12.1235 81.7795 11.1319 83.0449 11.1319C83.3593 11.121 83.6707 11.1966 83.945 11.3506C84.2193 11.5047 84.446 11.7311 84.6003 12.0052H84.6777V11.2141H85.6144V16.2081C85.6144 17.3408 84.7271 18.0595 83.3263 18.0595C82.0888 18.0596 81.288 17.5047 81.1838 16.6631ZM84.6551 13.6289C84.6551 12.6422 84.1449 12.0101 83.3123 12.0101C82.4712 12.0101 81.9986 12.6423 81.9986 13.6289C81.9986 14.6161 82.4712 15.2483 83.3123 15.2483C84.1502 15.2483 84.6551 14.621 84.6551 13.6289H84.6551Z" fill="white"/>
<path d="M86.8887 14.7662C86.8887 13.8746 87.5525 13.3606 88.731 13.2875L90.0727 13.2102V12.7827C90.0727 12.2595 89.7268 11.9641 89.0586 11.9641C88.5129 11.9641 88.1348 12.1645 88.0263 12.5146H87.0799C87.1798 11.6639 87.9801 11.1182 89.1037 11.1182C90.3455 11.1182 91.0459 11.7364 91.0459 12.7827V16.167H90.1049V15.4709H90.0275C89.8706 15.7206 89.6501 15.9241 89.3887 16.0608C89.1273 16.1974 88.8344 16.2622 88.5398 16.2486C88.3318 16.2702 88.1217 16.248 87.9228 16.1835C87.724 16.1189 87.5409 16.0134 87.3853 15.8737C87.2298 15.7341 87.1052 15.5633 87.0197 15.3726C86.9341 15.1818 86.8895 14.9753 86.8887 14.7662ZM90.0727 14.343V13.9289L88.8631 14.0062C88.181 14.0518 87.8716 14.2839 87.8716 14.7205C87.8716 15.1663 88.2583 15.4258 88.7901 15.4258C88.9459 15.4415 89.1033 15.4258 89.2529 15.3795C89.4025 15.3332 89.5413 15.2573 89.6609 15.1563C89.7806 15.0552 89.8787 14.9312 89.9494 14.7914C90.0202 14.6517 90.0621 14.4992 90.0727 14.343Z" fill="white"/>
<path d="M92.6211 9.28027H93.5986V16.1671H92.6211V9.28027Z" fill="white"/>
<path d="M94.9583 13.6882C94.9272 13.3627 94.9644 13.0342 95.0676 12.724C95.1709 12.4137 95.3378 12.1284 95.5577 11.8864C95.7777 11.6445 96.0457 11.4511 96.3448 11.3188C96.6438 11.1865 96.9672 11.1182 97.2942 11.1182C97.6212 11.1182 97.9446 11.1865 98.2436 11.3188C98.5427 11.4511 98.8107 11.6445 99.0307 11.8864C99.2506 12.1284 99.4175 12.4137 99.5208 12.724C99.624 13.0342 99.6612 13.3627 99.6301 13.6882C99.6618 14.014 99.625 14.3429 99.5221 14.6537C99.4191 14.9645 99.2523 15.2503 99.0323 15.4927C98.8123 15.7352 98.544 15.9289 98.2447 16.0615C97.9454 16.1941 97.6216 16.2626 97.2942 16.2626C96.9668 16.2626 96.643 16.1941 96.3437 16.0615C96.0444 15.9289 95.7761 15.7352 95.5561 15.4927C95.3361 15.2503 95.1693 14.9645 95.0663 14.6537C94.9634 14.3429 94.9266 14.014 94.9583 13.6882ZM98.6246 13.6882C98.6246 12.6145 98.1423 11.9866 97.2958 11.9866C96.4461 11.9866 95.9681 12.6145 95.9681 13.6882C95.9681 14.7705 96.4461 15.3935 97.2958 15.3935C98.1423 15.3935 98.6246 14.7662 98.6246 13.6882H98.6246Z" fill="white"/>
<path d="M107.819 14.8297C107.686 15.2824 107.398 15.674 107.006 15.9359C106.613 16.1979 106.142 16.3136 105.672 16.2627C105.346 16.2713 105.022 16.2088 104.722 16.0795C104.422 15.9502 104.154 15.7573 103.937 15.514C103.719 15.2708 103.557 14.983 103.461 14.6708C103.366 14.3586 103.34 14.0294 103.384 13.706C103.341 13.3817 103.368 13.0517 103.463 12.7386C103.558 12.4255 103.719 12.1364 103.936 11.891C104.152 11.6457 104.419 11.4497 104.718 11.3163C105.017 11.183 105.341 11.1155 105.668 11.1182C107.046 11.1182 107.878 12.0598 107.878 13.6152V13.9564H104.38V14.0111C104.365 14.1929 104.388 14.3759 104.447 14.5483C104.507 14.7207 104.602 14.8788 104.726 15.0124C104.85 15.146 105.001 15.2522 105.168 15.3241C105.336 15.3961 105.517 15.4322 105.699 15.4301C105.933 15.4582 106.17 15.4161 106.38 15.3092C106.59 15.2022 106.763 15.0353 106.878 14.8296L107.819 14.8297ZM104.38 13.2334H106.882C106.894 13.0672 106.872 12.9002 106.816 12.7432C106.76 12.5862 106.671 12.4427 106.557 12.3218C106.442 12.201 106.303 12.1055 106.149 12.0415C105.995 11.9775 105.829 11.9464 105.663 11.9502C105.494 11.9481 105.326 11.9799 105.169 12.0436C105.013 12.1073 104.87 12.2018 104.751 12.3214C104.631 12.441 104.537 12.5833 104.473 12.7399C104.41 12.8965 104.378 13.0643 104.38 13.2334H104.38Z" fill="white"/>
<path d="M109.189 11.2138H110.13V12.0006H110.204C110.327 11.718 110.536 11.4811 110.801 11.3229C111.066 11.1647 111.374 11.0932 111.682 11.1182C111.923 11.1 112.165 11.1364 112.39 11.2245C112.615 11.3126 112.817 11.4502 112.982 11.6271C113.146 11.8041 113.269 12.0158 113.341 12.2466C113.413 12.4774 113.431 12.7214 113.396 12.9604V16.1669H112.419V13.2059C112.419 12.4099 112.073 12.0141 111.35 12.0141C111.186 12.0064 111.023 12.0343 110.871 12.0957C110.719 12.1571 110.582 12.2506 110.47 12.3699C110.358 12.4891 110.272 12.6312 110.22 12.7864C110.168 12.9417 110.15 13.1064 110.167 13.2693V16.167H109.189V11.2138Z" fill="white"/>
<path d="M121.784 14.8297C121.651 15.2824 121.363 15.674 120.971 15.9359C120.578 16.1979 120.106 16.3136 119.637 16.2627C119.311 16.2713 118.987 16.2088 118.687 16.0795C118.387 15.9502 118.119 15.7573 117.901 15.514C117.684 15.2708 117.522 14.983 117.426 14.6708C117.331 14.3586 117.305 14.0294 117.349 13.706C117.306 13.3817 117.333 13.0517 117.428 12.7386C117.523 12.4255 117.684 12.1364 117.901 11.891C118.117 11.6457 118.384 11.4497 118.683 11.3163C118.982 11.183 119.306 11.1155 119.633 11.1182C121.011 11.1182 121.843 12.0598 121.843 13.6152V13.9564H118.345V14.0111C118.33 14.1929 118.353 14.3759 118.412 14.5483C118.472 14.7207 118.567 14.8788 118.691 15.0124C118.815 15.146 118.966 15.2522 119.133 15.3241C119.301 15.3961 119.482 15.4322 119.664 15.4301C119.898 15.4582 120.135 15.4161 120.345 15.3092C120.555 15.2022 120.728 15.0353 120.843 14.8296L121.784 14.8297ZM118.345 13.2334H120.847C120.859 13.0672 120.837 12.9002 120.781 12.7432C120.725 12.5862 120.636 12.4427 120.521 12.3218C120.407 12.201 120.268 12.1055 120.114 12.0415C119.96 11.9775 119.794 11.9464 119.628 11.9502C119.459 11.9481 119.291 11.9799 119.134 12.0436C118.978 12.1073 118.835 12.2018 118.716 12.3214C118.596 12.441 118.502 12.5833 118.438 12.7399C118.375 12.8965 118.343 13.0643 118.345 13.2334H118.345Z" fill="white"/>
<path d="M123.201 9.28027H124.179V16.1671H123.201V9.28027Z" fill="white"/>
</g>
<defs>
<clipPath id="clip0_17541_23316">
<rect width="150" height="44" fill="white"/>
</clipPath>
</defs>
</svg>
