<svg width="106" height="106" viewBox="0 0 106 106" fill="none" xmlns="http://www.w3.org/2000/svg">
<path d="M5.82761 71.4515C4.48524 70.7437 3.70422 69.3525 3.83439 67.9451C3.98897 66.3342 5.27439 65.4312 5.45337 65.3091C18.9829 52.3735 32.6832 39.2752 46.5707 26.0061C46.9368 25.5586 48.2547 24.0373 50.5978 23.4759C52.9327 22.9227 54.7551 23.6874 55.2757 23.9315C63.3137 28.3084 71.4168 32.7179 79.5768 37.16C80.7646 37.5261 81.6513 38.4861 81.8873 39.6576C82.1313 40.8942 81.6351 42.1796 80.5937 42.9851C66.0473 56.6773 51.688 70.1823 37.5157 83.5166C36.93 84.2162 35.8317 85.3145 34.2046 85.7132C31.9347 86.2745 29.8683 85.1844 28.8025 84.5986C25.3856 82.7274 16.9408 78.0007 5.81947 71.4434L5.82761 71.4515Z" fill="white"/>
<path d="M5.88246 70.9064C4.33669 69.9708 3.515 68.1647 4.79229 66.6271C5.53263 65.7403 6.56585 64.9918 7.41195 64.2108C10.0804 61.7539 12.6838 59.2237 15.3116 56.7179C20.5591 51.6983 25.8147 46.6786 31.0621 41.6589C33.7306 39.1044 36.3991 36.5579 39.0676 34.0033C41.6221 31.5545 44.3557 29.2115 46.772 26.6162C48.5211 24.745 50.913 23.6874 53.5082 24.143C54.7367 24.3627 55.713 24.9566 56.795 25.5586C58.4221 26.4616 60.0655 27.3566 61.7008 28.2515C64.9306 30.0169 68.1523 31.7905 71.3821 33.564C72.9767 34.4427 74.5632 35.3132 76.1577 36.1837C76.9225 36.6067 77.6872 37.0298 78.4601 37.4447C79.1272 37.8108 79.9082 38.0711 80.5274 38.5267C81.1945 39.0149 81.8046 39.8528 81.528 40.7071C81.2514 41.5613 80.5192 42.082 79.9009 42.6515L75.9226 46.3857C73.2297 48.924 70.4962 51.4379 67.8602 54.0332C62.6372 59.1749 57.1782 64.0888 51.8413 69.1166C46.7972 73.8678 41.8101 78.6678 36.7579 83.4027C32.9992 86.9254 28.3538 83.4271 24.7904 81.4339C19.9823 78.7573 15.2473 75.9586 10.4555 73.2495C8.94225 72.3952 7.43717 71.541 5.92395 70.6949C5.48463 70.4508 5.37886 71.9234 5.77751 72.1674C11.3585 75.6413 17.0778 78.8874 22.8053 82.1254C24.5301 83.1017 26.2548 84.0698 27.9877 85.0298C30.1599 86.2257 32.4867 87.3566 34.9843 86.3478C36.3348 85.8027 37.2134 84.7532 38.2385 83.7769C39.6623 82.4101 41.1104 81.0678 42.5504 79.7173C45.3897 77.0407 48.2372 74.3722 51.0765 71.7037C56.8446 66.2773 62.507 60.7125 68.3972 55.4244C71.3911 52.7396 74.2792 49.941 77.208 47.183C78.5423 45.9301 80.0555 44.7261 81.2677 43.3511C82.1138 42.3911 82.4148 41.0569 82.2928 39.7959C82.1708 38.5349 81.6175 37.3796 80.5599 36.6881C79.9091 36.2569 79.128 35.9722 78.4365 35.5979C77.4928 35.0854 76.5409 34.581 75.5972 34.0684C72.1233 32.1972 68.6494 30.3342 65.1836 28.4549L59.9118 25.5993C58.3497 24.7532 56.7877 23.7688 55.1524 23.0691C52.7362 22.044 49.848 22.4671 47.7735 24.0372C46.8297 24.7532 46.0324 25.705 45.1782 26.5267L40.785 30.7247C37.9131 33.4664 35.0494 36.2081 32.1775 38.9417C26.3931 44.4657 20.6087 49.9979 14.8243 55.522C12.0663 58.1579 9.30022 60.7857 6.59107 63.4705C5.81005 64.2515 4.74429 64.9918 4.15852 65.96C3.57276 66.9281 3.42632 68.0996 3.66225 69.1979C3.93073 70.4183 4.69547 71.3783 5.78564 71.9722C6.11107 72.1512 6.19242 71.0529 5.89141 70.8657L5.88246 70.9064Z" fill="#000F66"/>
<path d="M4.05246 66.3499C2.52297 68.3187 2.20164 71.8713 2.32456 73.752C2.44748 75.6327 2.85115 75.8695 3.61168 76.3906C4.37221 76.9117 8.43604 79.5626 9.66084 80.4609C10.8856 81.3592 17.1332 84.7482 18.7255 85.769C20.3178 86.7898 32.4278 93.2205 33.6938 93.9146C34.9598 94.6087 37.3921 92.4522 37.3921 91.2823C37.3921 90.1124 38.014 88.3224 40.4627 86.5608C42.9113 84.7992 67.6559 61.8538 69.7991 59.6432C69.7991 59.6432 80.9642 48.1251 83.6589 47.1694C86.3536 46.2136 86.0847 46.3805 87.8312 48.9992C89.5777 51.6178 95.6088 50.4717 98.8387 48.2914C102.069 46.111 103.989 42.1164 103.663 38.2358C103.599 37.4711 102.538 30.4324 98.44 27.9511C93.5396 24.9839 80.8831 17.9195 74.7681 14.7183C68.4233 11.3968 66.0043 11.4809 62.6381 12.8067C59.2718 14.1325 53.001 19.8906 48.6042 23.5211C48.6042 23.5211 52.1033 23.0006 53.859 23.7569C55.6148 24.5132 78.2448 36.1874 79.5369 37.0234C81.9077 38.5574 82.5981 40.9863 81.1174 42.3693C67.4496 55.191 51.0599 71.1661 37.3921 83.9878C36.1393 85.1675 34.6504 86.4203 32.942 86.2413C32.1203 86.1519 31.3799 85.7369 30.664 85.3302C22.9433 80.9369 15.2226 76.5438 7.49382 72.1424C6.40365 71.5241 5.28907 70.8814 4.54873 69.8726C3.80839 68.8638 3.32839 67.3505 4.05246 66.3336V66.3499Z" fill="#000F66"/>
<path d="M60.0488 20.5463C61.4563 21.4412 62.8475 22.3605 64.2793 23.2229C65.7112 24.0853 67.1268 24.907 68.5587 25.7368C71.4224 27.3965 74.3105 29.0155 77.2475 30.5612C78.0529 30.9843 78.8583 31.3992 79.6638 31.806C80.5261 32.2372 81.3966 32.5789 82.2834 32.9531C82.3241 32.9694 82.4751 32.781 82.4426 32.7647C81.6941 32.3335 80.8353 31.9036 80.0543 31.505C79.3302 31.1307 78.7156 30.7213 77.9997 30.3471C76.5353 29.5824 75.1376 28.8279 73.6813 28.0387C70.785 26.4686 67.821 24.7914 64.9817 23.1236C63.379 22.1799 61.8351 21.2658 60.2405 20.2976C60.2079 20.2813 60.0163 20.5382 60.057 20.5626L60.0488 20.5463Z" fill="white"/>
<path d="M41.9387 38.7866L48.7075 64.3161L50.9529 62.2496L43.9156 37.0049L41.9387 38.7866ZM32.7129 47.6381L38.7088 73.4849L46.0227 66.171L39.3678 41.7235L32.7129 47.6381Z" fill="#B3D6FF"/>
<path d="M32.2372 80.0313C33.604 79.112 38.7917 73.8835 40.004 72.7771C41.2162 71.6706 42.404 70.5886 43.5999 69.4903C45.9999 67.2937 48.3917 65.0971 50.7917 62.9004C55.5836 58.4991 60.3836 54.0977 65.1592 49.6801C67.8928 47.1418 70.6344 44.6116 73.3843 42.0977C73.5551 41.9432 73.4168 41.2354 73.2866 41.3493C63.6216 50.2415 53.8833 59.036 44.2182 67.9201C42.8677 69.1567 41.5172 70.3933 40.1748 71.6381C38.8324 72.8828 33.3355 78.1276 32.1314 79.5594C32.0582 79.6408 32.0826 80.1371 32.2372 80.0313Z" fill="#000F66"/>
<path fill-rule="evenodd" clip-rule="evenodd" d="M10.0947 67.5702C9.87322 67.3283 9.80724 67.1119 9.93741 66.9817C12.4513 64.4678 19.0628 58.0434 21.65 55.6027C22.2168 55.0677 22.7837 54.5327 23.3507 53.9977C27.4224 50.1554 31.4965 46.3108 35.5455 42.4475C36.5411 41.5005 37.5396 40.555 38.5385 39.6091C39.8825 38.3365 41.2272 37.0631 42.5666 35.7844C43.7218 34.6861 44.8771 33.5878 46.0405 32.4895C46.6262 31.9282 47.2201 31.3668 47.814 30.8136C47.951 30.6866 48.0865 30.5513 48.2232 30.4148C48.647 29.9917 49.083 29.5565 49.612 29.3166C49.7291 29.2634 49.7591 29.4853 49.7499 29.6702C50.2767 30.0214 50.8031 30.3726 51.3223 30.7238H51.3304C45.5434 36.2041 38.7978 42.643 32.0313 49.1019C24.9758 55.8367 17.8974 62.5932 11.8592 68.3075C11.8592 68.3075 10.3163 67.8122 10.0947 67.5702Z" fill="#000F66"/>
<path fill-rule="evenodd" clip-rule="evenodd" d="M12.4649 69.1489C11.6314 68.672 10.7947 68.1931 10.0772 67.5593H10.0691C10.0203 67.5105 9.97147 67.1769 10.0854 67.2094C10.9098 67.4173 11.6634 67.8375 12.4015 68.249C12.5302 68.3208 12.6584 68.3923 12.7864 68.4623C13.7301 68.9749 14.6738 69.4955 15.6176 70.0244C17.4802 71.0574 19.3347 72.0985 21.1893 73.1396L21.1905 73.1403L26.7633 76.2644L29.5945 77.8508L31.0101 78.6481C31.1036 78.7008 31.1985 78.751 31.2932 78.8011C31.6517 78.9907 32.0073 79.1788 32.2711 79.4942C32.3525 79.5837 32.4257 80.0962 32.2142 80.0962C31.8656 80.0962 31.5266 79.8819 31.2117 79.6829C31.115 79.6218 31.0205 79.5621 30.9288 79.5105L29.5132 78.7213L26.682 77.1349L21.1986 74.0677L21.1953 74.0659C19.3659 73.0414 17.5365 72.017 15.7152 70.9925C14.7633 70.4637 13.8521 69.9511 12.884 69.3898C12.7448 69.3091 12.6049 69.229 12.4649 69.1489ZM50.4365 30.45C50.1452 30.2464 49.8662 30.0299 49.6046 29.7966V29.8047C49.5476 29.7478 49.5151 29.3654 49.6452 29.3898C50.4605 29.5208 51.2172 29.8994 51.956 30.269C52.0429 30.3124 52.1296 30.3558 52.2161 30.3986C53.0866 30.8298 53.9571 31.2691 54.8195 31.7084C56.8751 32.7607 58.9308 33.8202 60.9865 34.8796C62.0142 35.4093 63.0419 35.939 64.0696 36.4678C64.8466 36.8705 65.6256 37.2711 66.4046 37.6718C67.1835 38.0725 67.9625 38.4732 68.7395 38.8759C69.13 39.0752 69.5184 39.2766 69.9069 39.4779C70.2954 39.6793 70.6839 39.8806 71.0744 40.08C71.2517 40.1706 71.4445 40.2573 71.642 40.3461C72.2415 40.6157 72.8834 40.9043 73.2629 41.3817C73.3768 41.52 73.4581 42.0976 73.1896 42.1383C73.0977 42.1516 73.0044 42.1465 72.9108 42.128C72.6826 42.3628 72.4545 42.5962 72.2263 42.8296C71.9619 43.1001 71.6975 43.3706 71.4331 43.6432C67.7725 41.7559 64.1139 39.8667 60.4554 37.9774C56.796 36.0877 53.1365 34.198 49.4751 32.3103L50.4365 30.45Z" fill="#000F66"/>
</svg>
