<svg width="72" height="104" viewBox="0 0 72 104" fill="none" xmlns="http://www.w3.org/2000/svg">
<path d="M0.628906 75.3495L2.94375 98.4979L45.1375 102.655C46.883 102.655 47.9664 102.655 48.9896 101.752L47.6332 77.4507L65.5222 7.12833C65.5222 7.12833 64.5916 4.44092 61.1863 3.9668" fill="#000F66"/>
<path d="M15.4073 2.91874C15.4912 2.52455 15.5919 2.0968 15.8938 1.82003C16.2293 1.5181 16.7157 1.49293 17.1686 1.48455C31.9048 1.14906 46.7835 0.813579 61.2344 3.71551C56.3112 28.4155 50.3983 52.9226 43.5125 77.1445L32.7183 76.8426C30.7725 76.7923 28.8351 76.7336 26.8893 76.7923C24.1886 76.8678 21.488 77.1613 18.7873 77.0691C15.9357 76.9684 13.1177 76.4484 10.2996 76.0374C8.84863 75.8278 7.38928 75.6349 5.92992 75.5426C5.05767 75.4923 2.61702 75.962 1.93767 75.4923C0.65444 74.6116 2.28992 69.9736 2.51638 68.7239C3.07831 65.6878 3.64025 62.6433 4.21057 59.6071C6.48347 47.5045 8.82347 35.4187 11.239 23.3497C12.6061 16.531 13.9899 9.72068 15.4073 2.91035V2.91874Z" fill="white"/>
<path d="M15.1212 1.58478C14.2573 3.72349 13.9638 6.18091 13.4689 8.42865C12.9238 10.928 12.4206 13.4357 11.9173 15.9435C10.9277 20.9338 9.94636 25.9157 8.97346 30.9061C7.05282 40.7693 5.19088 50.6409 3.27862 60.5041L1.80249 68.0945L1.12314 71.5835C0.896687 72.7745 0.418622 74.1583 0.527654 75.3745C0.561203 75.7603 0.678622 76.9261 1.35798 76.5235C1.72701 76.3054 1.77733 75.6177 1.85282 75.2654C2.01217 74.519 2.14636 73.7641 2.29733 73.0177L3.73991 65.6454C5.66056 55.8241 7.63153 46.0196 9.55217 36.1983C10.6509 30.6041 11.7328 25.0016 12.8064 19.399C13.3348 16.648 13.8464 13.897 14.3496 11.1461C14.8528 8.3951 15.5825 5.32543 15.7167 2.4151C15.7251 2.1551 15.4483 0.762847 15.1128 1.58478H15.1212Z" fill="#000F66"/>
<path d="M15.2902 2.07204C17.0599 2.0301 18.7876 2.1643 20.5573 2.0972C22.4444 2.02171 24.3399 1.94623 26.227 1.92107C30.2528 1.87075 34.2702 1.97978 38.2876 2.25655C42.3051 2.53333 46.4651 2.97784 50.5244 3.58171C52.4367 3.86688 54.3489 4.19397 56.2444 4.55462C57.1502 4.72236 58.0476 4.90688 58.9451 5.083C59.7838 5.25075 60.6728 5.55268 61.5367 5.48559C61.7883 5.46881 61.7128 4.25268 61.5031 4.14365C59.9851 3.33849 57.8883 3.18752 56.2025 2.86881C54.2986 2.50817 52.3947 2.18107 50.4825 1.89591C42.4417 0.685263 34.3158 0.129888 26.1851 0.235263C24.298 0.260424 22.4025 0.30236 20.5154 0.419779C18.7289 0.537198 17.0347 0.90623 15.2651 1.16623C15.047 1.19978 15.0805 2.07204 15.2902 2.06365V2.07204ZM0.653899 76.2979C2.48229 76.7088 4.39454 76.7172 6.26487 76.843C8.13519 76.9688 10.0055 77.0778 11.8758 77.1869C15.4739 77.4049 19.072 77.6146 22.6784 77.8327C26.2849 78.0508 29.8745 78.252 33.481 78.4617C35.2842 78.5624 37.0791 78.6714 38.8823 78.772C39.8552 78.8224 40.8197 78.8811 41.7926 78.9314C42.6565 78.9817 43.621 79.292 44.3255 78.7301C44.5352 78.5624 44.4933 77.7404 44.3004 77.5727C43.621 76.9688 42.6397 77.1449 41.7507 77.0862C40.8616 77.0275 39.9474 76.9772 39.05 76.9185C37.1797 76.8011 35.3094 76.7004 33.4391 76.5914C29.841 76.3817 26.2429 76.172 22.6365 75.9707L11.8339 75.3669C10.0307 75.2662 8.23583 75.1656 6.43261 75.0733C4.51196 74.9727 2.53261 74.7462 0.62035 74.9559C0.301641 74.9895 0.343576 76.2224 0.653899 76.2979Z" fill="#000F66"/>
<path d="M61.023 4.3282C60.2263 6.51723 59.7146 8.84045 59.1443 11.0966C58.574 13.3527 58.0037 15.6592 57.4417 17.9405C56.2675 22.6624 55.1353 27.4011 53.9946 32.1314C51.6966 41.6172 49.4572 51.1114 47.2011 60.5972C45.9095 66.0237 44.5927 71.4417 43.3346 76.8766C43.2256 77.363 43.1669 78.3443 43.5946 78.7134C44.0224 79.0824 44.2824 78.6463 44.3914 78.2101C49.0127 59.3475 53.4327 40.4263 57.8695 21.5134C59.1359 16.0953 60.654 10.6185 61.434 5.09981C61.4592 4.89852 61.2662 3.69078 61.0314 4.33658L61.023 4.3282Z" fill="#000F66"/>
<path d="M21.3062 63.081L21.5892 63.0883V63.0967C21.715 63.0967 21.824 63.0296 21.8659 62.9122C22.235 61.9644 22.5956 61.0083 22.9646 60.0606C23.0317 59.8761 22.9059 59.6664 22.7046 59.6664L10.9543 59.2135C10.8285 59.2051 10.7111 59.289 10.6692 59.4064C10.3253 60.4044 9.97302 61.4109 9.62915 62.409C9.57044 62.5935 9.70463 62.7948 9.89754 62.7948C13.7032 62.8848 17.5009 62.9828 21.3062 63.081Z" fill="#000F66"/>
<path d="M43.883 81.405C43.7237 82.0508 43.8578 82.8057 43.8914 83.4682C43.9417 84.265 43.992 85.0702 44.0507 85.867C44.1598 87.4689 44.2856 89.0624 44.4114 90.656L44.7888 95.445C44.8475 96.1915 44.9062 96.9295 44.9817 97.676C45.0488 98.3134 45.074 99.085 45.3507 99.6721C45.3759 99.7224 45.4095 99.6889 45.4178 99.647C45.5688 99.0095 45.5017 98.2631 45.4682 97.6173C45.4262 96.8205 45.3591 96.0153 45.3004 95.2186C45.1746 93.625 45.0488 92.0231 44.9146 90.4295C44.7804 88.836 44.663 87.276 44.5204 85.6992C44.4533 84.9444 44.3862 84.1812 44.3108 83.4263C44.2437 82.7805 44.2772 81.9586 43.992 81.3631C43.9501 81.2792 43.8998 81.3379 43.883 81.3966V81.405Z" fill="white"/>
<path d="M30.0764 81.084C29.917 81.7298 30.0512 82.4847 30.0848 83.1472C30.1351 83.944 30.1854 84.7492 30.2441 85.5459C30.3531 87.1479 30.4789 88.7414 30.6048 90.335L30.8195 93.5685C30.8782 94.315 31.0047 95.6203 31.0802 96.3667C31.1473 97.0042 31.1826 97.8554 31.6449 98.017C32.1071 98.1787 40.6033 98.883 41.2083 98.7001C41.8132 98.5173 41.6951 97.9421 41.6615 97.2963C41.6196 96.4995 41.5525 95.6943 41.4938 94.8976C41.368 93.304 41.2422 91.7021 41.108 90.1085C40.9738 88.515 40.8564 86.955 40.7138 85.3782C40.6467 84.6234 40.5796 83.8601 40.5041 83.1053C40.437 82.4595 40.1952 81.8468 39.6137 81.3717C39.0322 80.8965 31.6693 80.6483 31.1751 80.6484C30.6808 80.6486 30.0764 81.084 30.0764 81.084Z" fill="white"/>
<path d="M20.4544 12.9912L18.0977 25.2112L33.077 53.0816L42.2777 53.5009V52.2512L20.4544 12.9912ZM21.9507 10.8609C29.2475 23.4667 36.5442 36.0809 43.8326 48.6867L44.8391 41.6583L23.9971 10.8777C23.3178 10.8777 22.63 10.8609 21.9507 10.8525V10.8609Z" fill="#B3D6FF"/>
<path d="M20.5818 9.55273C19.8857 10.9618 19.6089 12.7566 19.2399 14.2831C18.8205 16.036 18.4347 17.7972 18.0322 19.5585C17.2522 23.0224 16.4638 26.4947 15.7005 29.9585C14.9373 33.4224 14.1741 36.9031 13.4109 40.3837C12.6476 43.8643 11.7251 47.4205 11.1715 50.9766C11.0457 51.7901 11.8425 53.5095 12.287 51.9663C13.2683 48.5779 13.8638 45.0469 14.6102 41.5998C15.3567 38.1527 16.1283 34.6553 16.8831 31.1747C17.638 27.694 18.3425 24.3476 19.0722 20.934C19.4496 19.1476 19.827 17.3695 20.196 15.5831C20.5651 13.7966 20.976 11.985 21.0599 10.2069C21.0683 9.98048 20.8922 8.94047 20.5818 9.56112V9.55273Z" fill="#000F66"/>
<path d="M20.7667 10.7108C22.7713 10.9288 24.7926 10.9456 26.8055 11.0379C28.8184 11.1301 30.8984 11.2224 32.9448 11.323C36.9958 11.5243 41.0551 11.6921 45.1061 11.9017C47.3874 12.0192 49.6771 12.145 51.9584 12.2372C52.2016 12.2456 52.2184 10.9456 51.9248 10.9204C43.848 10.1992 35.7126 9.88884 27.6022 9.654C25.3209 9.5869 23.0229 9.45271 20.7416 9.56174C20.4984 9.57013 20.5151 10.6772 20.7667 10.7024V10.7108ZM11.5669 52.4198C12.3637 52.8895 13.5211 52.814 14.4186 52.8895C15.425 52.9734 16.4315 53.0237 17.4463 53.0824C19.5011 53.1998 21.5476 53.3172 23.6024 53.4263C27.6702 53.6527 31.7379 53.8959 35.8057 54.114C38.1037 54.2398 40.3934 54.3656 42.6915 54.483C42.9682 54.4998 42.9934 53.1159 42.6579 53.0992C34.5224 52.6463 26.3869 52.2101 18.2515 51.774C17.136 51.7153 16.0289 51.6398 14.9134 51.6063C14.3263 51.5895 13.7308 51.5643 13.1437 51.5559C12.5986 51.5559 12.0534 51.4972 11.5502 51.7488C11.4076 51.8159 11.4411 52.3443 11.5669 52.4198Z" fill="#000F66"/>
<path d="M32.7823 89.6908L32.6349 89.6778L32.6344 89.6821C32.569 89.6747 32.5161 89.634 32.5011 89.5714C32.364 89.0647 32.2317 88.5542 32.0946 88.0475C32.0704 87.9492 32.148 87.8493 32.2528 87.8612L38.393 88.3218C38.459 88.3249 38.5152 88.3747 38.5302 88.4373C38.6513 88.9683 38.7763 89.504 38.8974 90.035C38.9173 90.1328 38.8358 90.2279 38.7354 90.2166C36.7499 90.0384 34.7681 89.8647 32.7823 89.6908Z" fill="#000F66"/>
<path d="M42.9066 53.9457C43.3847 52.6625 43.6363 51.2786 43.9382 49.945C44.2402 48.6115 44.5505 47.236 44.8524 45.8857L46.6892 37.5238C47.8969 32.0218 49.1047 26.5115 50.304 21.0096C50.6479 19.4496 50.9834 17.8896 51.3273 16.3212C51.495 15.5747 51.6544 14.8283 51.8221 14.0818C52.0066 13.2347 52.2666 12.4296 52.0989 11.5573C52.0653 11.4063 51.9647 10.9702 51.7215 11.1044C51.2098 11.3812 51.2098 12.1528 51.1008 12.6728L50.6227 14.9289C50.3292 16.296 50.044 17.6631 49.7505 19.0302C49.155 21.8231 48.5511 24.6244 47.9556 27.4173C46.7815 32.9444 45.6073 38.4631 44.4415 43.9902C44.106 45.567 43.7873 47.1354 43.4602 48.7121C43.1331 50.2889 42.7556 51.8909 42.6047 53.5012C42.5879 53.6438 42.7556 54.3818 42.915 53.9457H42.9066Z" fill="#000F66"/>
</svg>
