<svg width="18" height="16" viewBox="0 0 18 16" fill="none" xmlns="http://www.w3.org/2000/svg">
<path fill-rule="evenodd" clip-rule="evenodd" d="M1.03396 1.60707C0.75 2.16437 0.75 2.89391 0.75 4.35299V7.30562C0.75 8.76471 0.75 9.49425 1.03396 10.0515C1.28373 10.5418 1.68229 10.9403 2.1725 11.1901C2.72979 11.474 3.45934 11.474 4.91842 11.474H7.91448V13.6451H4.00658C3.40706 13.6451 2.92105 14.1311 2.92105 14.7306C2.92105 15.3301 3.40706 15.8161 4.00658 15.8161H13.9934C14.5929 15.8161 15.0789 15.3301 15.0789 14.7306C15.0789 14.1311 14.5929 13.6451 13.9934 13.6451H10.0855V11.474H13.0816C14.5407 11.474 15.2702 11.474 15.8275 11.1901C16.3177 10.9403 16.7163 10.5418 16.966 10.0515C17.25 9.49425 17.25 8.76471 17.25 7.30562V4.35299C17.25 2.89391 17.25 2.16437 16.966 1.60707C16.7163 1.11686 16.3177 0.718302 15.8275 0.468527C15.2702 0.18457 14.5407 0.18457 13.0816 0.18457H4.91842C3.45934 0.18457 2.72979 0.18457 2.1725 0.468527C1.68229 0.718302 1.28373 1.11686 1.03396 1.60707Z" fill="white"/>
</svg>
